<?xml version="1.0" encoding="UTF-8"?>
<svg xmlns="http://www.w3.org/2000/svg" width="275" height="189">
   <defs>
      <style type="text/css">
    @namespace "http://www.w3.org/2000/svg";
    .line                 {fill: none; stroke: #332900; stroke-width: 1;}
    .bold-line            {stroke: #141000; shape-rendering: crispEdges; stroke-width: 2;}
    .thin-line            {stroke: #1F1800; shape-rendering: crispEdges}
    .filled               {fill: #332900; stroke: none;}
    text.terminal         {font-family: Verdana, Sans-serif;
                            font-size: 12px;
                            fill: #141000;
                            font-weight: bold;
                          }
    text.nonterminal      {font-family: Verdana, Sans-serif;
                            font-size: 12px;
                            fill: #1A1400;
                            font-weight: normal;
                          }
    text.regexp           {font-family: Verdana, Sans-serif;
                            font-size: 12px;
                            fill: #1F1800;
                            font-weight: normal;
                          }
    rect, circle, polygon {fill: #332900; stroke: #332900;}
    rect.terminal         {fill: #FFDB4D; stroke: #332900; stroke-width: 1;}
    rect.nonterminal      {fill: #FFEC9E; stroke: #332900; stroke-width: 1;}
    rect.text             {fill: none; stroke: none;}
    polygon.regexp        {fill: #FFF4C7; stroke: #332900; stroke-width: 1;}
  </style>
   </defs>
   <polygon points="9 183 1 179 1 187"/>
   <polygon points="17 183 9 179 9 187"/>
   <a xmlns:xlink="http://www.w3.org/1999/xlink"
      xlink:href="#const_declaration"
      xlink:title="const_declaration">
      <rect x="51" y="135" width="132" height="32"/>
      <rect x="49" y="133" width="132" height="32" class="nonterminal"/>
      <text class="nonterminal" x="59" y="153">const_declaration</text>
   </a>
   <a xmlns:xlink="http://www.w3.org/1999/xlink"
      xlink:href="#type_declaration"
      xlink:title="type_declaration">
      <rect x="51" y="91" width="126" height="32"/>
      <rect x="49" y="89" width="126" height="32" class="nonterminal"/>
      <text class="nonterminal" x="59" y="109">type_declaration</text>
   </a>
   <a xmlns:xlink="http://www.w3.org/1999/xlink"
      xlink:href="#var_declaration"
      xlink:title="var_declaration">
      <rect x="51" y="47" width="118" height="32"/>
      <rect x="49" y="45" width="118" height="32" class="nonterminal"/>
      <text class="nonterminal" x="59" y="65">var_declaration</text>
   </a>
   <a xmlns:xlink="http://www.w3.org/1999/xlink"
      xlink:href="#subprogram_declaration"
      xlink:title="subprogram_declaration">
      <rect x="51" y="3" width="176" height="32"/>
      <rect x="49" y="1" width="176" height="32" class="nonterminal"/>
      <text class="nonterminal" x="59" y="21">subprogram_declaration</text>
   </a>
   <path class="line"
         d="m17 183 h2 m20 0 h10 m0 0 h186 m-216 0 l20 0 m-1 0 q-9 0 -9 -10 l0 -14 q0 -10 10 -10 m196 34 l20 0 m-20 0 q10 0 10 -10 l0 -14 q0 -10 -10 -10 m-196 0 h10 m132 0 h10 m0 0 h44 m-206 10 l0 -44 q0 -10 10 -10 m206 54 l0 -44 q0 -10 -10 -10 m-196 0 h10 m126 0 h10 m0 0 h50 m-206 10 l0 -44 q0 -10 10 -10 m206 54 l0 -44 q0 -10 -10 -10 m-196 0 h10 m118 0 h10 m0 0 h58 m-206 10 l0 -44 q0 -10 10 -10 m206 54 l0 -44 q0 -10 -10 -10 m-196 0 h10 m176 0 h10 m23 166 h-3"/>
   <polygon points="265 183 273 179 273 187"/>
   <polygon points="265 183 257 179 257 187"/>
</svg>
