<?xml version="1.0" encoding="UTF-8"?>
<svg xmlns="http://www.w3.org/2000/svg" width="883" height="81">
   <defs>
      <style type="text/css">
    @namespace "http://www.w3.org/2000/svg";
    .line                 {fill: none; stroke: #332900; stroke-width: 1;}
    .bold-line            {stroke: #141000; shape-rendering: crispEdges; stroke-width: 2;}
    .thin-line            {stroke: #1F1800; shape-rendering: crispEdges}
    .filled               {fill: #332900; stroke: none;}
    text.terminal         {font-family: Verdana, Sans-serif;
                            font-size: 12px;
                            fill: #141000;
                            font-weight: bold;
                          }
    text.nonterminal      {font-family: Verdana, Sans-serif;
                            font-size: 12px;
                            fill: #1A1400;
                            font-weight: normal;
                          }
    text.regexp           {font-family: Verdana, Sans-serif;
                            font-size: 12px;
                            fill: #1F1800;
                            font-weight: normal;
                          }
    rect, circle, polygon {fill: #332900; stroke: #332900;}
    rect.terminal         {fill: #FFDB4D; stroke: #332900; stroke-width: 1;}
    rect.nonterminal      {fill: #FFEC9E; stroke: #332900; stroke-width: 1;}
    rect.text             {fill: none; stroke: none;}
    polygon.regexp        {fill: #FFF4C7; stroke: #332900; stroke-width: 1;}
  </style>
   </defs>
   <polygon points="9 17 1 13 1 21"/>
   <polygon points="17 17 9 13 9 21"/>
   <rect x="31" y="3" width="58" height="32" rx="10"/>
   <rect x="29"
         y="1"
         width="58"
         height="32"
         class="terminal"
         rx="10"/>
   <text class="terminal" x="39" y="21">untuk</text>
   <a xmlns:xlink="http://www.w3.org/1999/xlink"
      xlink:href="#IDENTIFIER"
      xlink:title="IDENTIFIER">
      <rect x="109" y="3" width="92" height="32"/>
      <rect x="107" y="1" width="92" height="32" class="nonterminal"/>
      <text class="nonterminal" x="117" y="21">IDENTIFIER</text>
   </a>
   <rect x="221" y="3" width="34" height="32" rx="10"/>
   <rect x="219"
         y="1"
         width="34"
         height="32"
         class="terminal"
         rx="10"/>
   <text class="terminal" x="229" y="21">:=</text>
   <a xmlns:xlink="http://www.w3.org/1999/xlink"
      xlink:href="#expression"
      xlink:title="expression">
      <rect x="275" y="3" width="90" height="32"/>
      <rect x="273" y="1" width="90" height="32" class="nonterminal"/>
      <text class="nonterminal" x="283" y="21">expression</text>
   </a>
   <rect x="405" y="3" width="36" height="32" rx="10"/>
   <rect x="403"
         y="1"
         width="36"
         height="32"
         class="terminal"
         rx="10"/>
   <text class="terminal" x="413" y="21">ke</text>
   <rect x="405" y="47" width="78" height="32" rx="10"/>
   <rect x="403"
         y="45"
         width="78"
         height="32"
         class="terminal"
         rx="10"/>
   <text class="terminal" x="413" y="65">turun-ke</text>
   <a xmlns:xlink="http://www.w3.org/1999/xlink"
      xlink:href="#expression"
      xlink:title="expression">
      <rect x="523" y="3" width="90" height="32"/>
      <rect x="521" y="1" width="90" height="32" class="nonterminal"/>
      <text class="nonterminal" x="531" y="21">expression</text>
   </a>
   <rect x="633" y="3" width="72" height="32" rx="10"/>
   <rect x="631"
         y="1"
         width="72"
         height="32"
         class="terminal"
         rx="10"/>
   <text class="terminal" x="641" y="21">lakukan</text>
   <a xmlns:xlink="http://www.w3.org/1999/xlink"
      xlink:href="#single_statement"
      xlink:title="single_statement">
      <rect x="725" y="3" width="130" height="32"/>
      <rect x="723" y="1" width="130" height="32" class="nonterminal"/>
      <text class="nonterminal" x="733" y="21">single_statement</text>
   </a>
   <path class="line"
         d="m17 17 h2 m0 0 h10 m58 0 h10 m0 0 h10 m92 0 h10 m0 0 h10 m34 0 h10 m0 0 h10 m90 0 h10 m20 0 h10 m36 0 h10 m0 0 h42 m-118 0 h20 m98 0 h20 m-138 0 q10 0 10 10 m118 0 q0 -10 10 -10 m-128 10 v24 m118 0 v-24 m-118 24 q0 10 10 10 m98 0 q10 0 10 -10 m-108 10 h10 m78 0 h10 m20 -44 h10 m90 0 h10 m0 0 h10 m72 0 h10 m0 0 h10 m130 0 h10 m3 0 h-3"/>
   <polygon points="873 17 881 13 881 21"/>
   <polygon points="873 17 865 13 865 21"/>
</svg>
