<?xml version="1.0" encoding="UTF-8"?>
<svg xmlns="http://www.w3.org/2000/svg" width="735" height="69">
   <defs>
      <style type="text/css">
    @namespace "http://www.w3.org/2000/svg";
    .line                 {fill: none; stroke: #332900; stroke-width: 1;}
    .bold-line            {stroke: #141000; shape-rendering: crispEdges; stroke-width: 2;}
    .thin-line            {stroke: #1F1800; shape-rendering: crispEdges}
    .filled               {fill: #332900; stroke: none;}
    text.terminal         {font-family: Verdana, Sans-serif;
                            font-size: 12px;
                            fill: #141000;
                            font-weight: bold;
                          }
    text.nonterminal      {font-family: Verdana, Sans-serif;
                            font-size: 12px;
                            fill: #1A1400;
                            font-weight: normal;
                          }
    text.regexp           {font-family: Verdana, Sans-serif;
                            font-size: 12px;
                            fill: #1F1800;
                            font-weight: normal;
                          }
    rect, circle, polygon {fill: #332900; stroke: #332900;}
    rect.terminal         {fill: #FFDB4D; stroke: #332900; stroke-width: 1;}
    rect.nonterminal      {fill: #FFEC9E; stroke: #332900; stroke-width: 1;}
    rect.text             {fill: none; stroke: none;}
    polygon.regexp        {fill: #FFF4C7; stroke: #332900; stroke-width: 1;}
  </style>
   </defs>
   <polygon points="9 17 1 13 1 21"/>
   <polygon points="17 17 9 13 9 21"/>
   <rect x="31" y="3" width="44" height="32" rx="10"/>
   <rect x="29"
         y="1"
         width="44"
         height="32"
         class="terminal"
         rx="10"/>
   <text class="terminal" x="39" y="21">jika</text>
   <a xmlns:xlink="http://www.w3.org/1999/xlink"
      xlink:href="#expression"
      xlink:title="expression">
      <rect x="95" y="3" width="90" height="32"/>
      <rect x="93" y="1" width="90" height="32" class="nonterminal"/>
      <text class="nonterminal" x="103" y="21">expression</text>
   </a>
   <rect x="205" y="3" width="56" height="32" rx="10"/>
   <rect x="203"
         y="1"
         width="56"
         height="32"
         class="terminal"
         rx="10"/>
   <text class="terminal" x="213" y="21">maka</text>
   <a xmlns:xlink="http://www.w3.org/1999/xlink"
      xlink:href="#single_statement"
      xlink:title="single_statement">
      <rect x="281" y="3" width="130" height="32"/>
      <rect x="279" y="1" width="130" height="32" class="nonterminal"/>
      <text class="nonterminal" x="289" y="21">single_statement</text>
   </a>
   <rect x="451" y="35" width="86" height="32" rx="10"/>
   <rect x="449"
         y="33"
         width="86"
         height="32"
         class="terminal"
         rx="10"/>
   <text class="terminal" x="459" y="53">selain_itu</text>
   <a xmlns:xlink="http://www.w3.org/1999/xlink"
      xlink:href="#single_statement"
      xlink:title="single_statement">
      <rect x="557" y="35" width="130" height="32"/>
      <rect x="555" y="33" width="130" height="32" class="nonterminal"/>
      <text class="nonterminal" x="565" y="53">single_statement</text>
   </a>
   <path class="line"
         d="m17 17 h2 m0 0 h10 m44 0 h10 m0 0 h10 m90 0 h10 m0 0 h10 m56 0 h10 m0 0 h10 m130 0 h10 m20 0 h10 m0 0 h246 m-276 0 h20 m256 0 h20 m-296 0 q10 0 10 10 m276 0 q0 -10 10 -10 m-286 10 v12 m276 0 v-12 m-276 12 q0 10 10 10 m256 0 q10 0 10 -10 m-266 10 h10 m86 0 h10 m0 0 h10 m130 0 h10 m23 -32 h-3"/>
   <polygon points="725 17 733 13 733 21"/>
   <polygon points="725 17 717 13 717 21"/>
</svg>
