<?xml version="1.0" encoding="UTF-8"?>
<svg xmlns="http://www.w3.org/2000/svg" width="883" height="69">
   <defs>
      <style type="text/css">
    @namespace "http://www.w3.org/2000/svg";
    .line                 {fill: none; stroke: #332900; stroke-width: 1;}
    .bold-line            {stroke: #141000; shape-rendering: crispEdges; stroke-width: 2;}
    .thin-line            {stroke: #1F1800; shape-rendering: crispEdges}
    .filled               {fill: #332900; stroke: none;}
    text.terminal         {font-family: Verdana, Sans-serif;
                            font-size: 12px;
                            fill: #141000;
                            font-weight: bold;
                          }
    text.nonterminal      {font-family: Verdana, Sans-serif;
                            font-size: 12px;
                            fill: #1A1400;
                            font-weight: normal;
                          }
    text.regexp           {font-family: Verdana, Sans-serif;
                            font-size: 12px;
                            fill: #1F1800;
                            font-weight: normal;
                          }
    rect, circle, polygon {fill: #332900; stroke: #332900;}
    rect.terminal         {fill: #FFDB4D; stroke: #332900; stroke-width: 1;}
    rect.nonterminal      {fill: #FFEC9E; stroke: #332900; stroke-width: 1;}
    rect.text             {fill: none; stroke: none;}
    polygon.regexp        {fill: #FFF4C7; stroke: #332900; stroke-width: 1;}
  </style>
   </defs>
   <polygon points="9 17 1 13 1 21"/>
   <polygon points="17 17 9 13 9 21"/>
   <rect x="31" y="3" width="80" height="32" rx="10"/>
   <rect x="29"
         y="1"
         width="80"
         height="32"
         class="terminal"
         rx="10"/>
   <text class="terminal" x="39" y="21">prosedur</text>
   <a xmlns:xlink="http://www.w3.org/1999/xlink"
      xlink:href="#IDENTIFIER"
      xlink:title="IDENTIFIER">
      <rect x="131" y="3" width="92" height="32"/>
      <rect x="129" y="1" width="92" height="32" class="nonterminal"/>
      <text class="nonterminal" x="139" y="21">IDENTIFIER</text>
   </a>
   <a xmlns:xlink="http://www.w3.org/1999/xlink"
      xlink:href="#formal_parameter_list"
      xlink:title="formal_parameter_list">
      <rect x="263" y="35" width="162" height="32"/>
      <rect x="261" y="33" width="162" height="32" class="nonterminal"/>
      <text class="nonterminal" x="271" y="53">formal_parameter_list</text>
   </a>
   <rect x="465" y="3" width="24" height="32" rx="10"/>
   <rect x="463"
         y="1"
         width="24"
         height="32"
         class="terminal"
         rx="10"/>
   <text class="terminal" x="473" y="21">;</text>
   <a xmlns:xlink="http://www.w3.org/1999/xlink"
      xlink:href="#declaration_part"
      xlink:title="declaration_part">
      <rect x="509" y="3" width="124" height="32"/>
      <rect x="507" y="1" width="124" height="32" class="nonterminal"/>
      <text class="nonterminal" x="517" y="21">declaration_part</text>
   </a>
   <a xmlns:xlink="http://www.w3.org/1999/xlink"
      xlink:href="#compound_statement"
      xlink:title="compound_statement">
      <rect x="653" y="3" width="158" height="32"/>
      <rect x="651" y="1" width="158" height="32" class="nonterminal"/>
      <text class="nonterminal" x="661" y="21">compound_statement</text>
   </a>
   <rect x="831" y="3" width="24" height="32" rx="10"/>
   <rect x="829"
         y="1"
         width="24"
         height="32"
         class="terminal"
         rx="10"/>
   <text class="terminal" x="839" y="21">;</text>
   <path class="line"
         d="m17 17 h2 m0 0 h10 m80 0 h10 m0 0 h10 m92 0 h10 m20 0 h10 m0 0 h172 m-202 0 h20 m182 0 h20 m-222 0 q10 0 10 10 m202 0 q0 -10 10 -10 m-212 10 v12 m202 0 v-12 m-202 12 q0 10 10 10 m182 0 q10 0 10 -10 m-192 10 h10 m162 0 h10 m20 -32 h10 m24 0 h10 m0 0 h10 m124 0 h10 m0 0 h10 m158 0 h10 m0 0 h10 m24 0 h10 m3 0 h-3"/>
   <polygon points="873 17 881 13 881 21"/>
   <polygon points="873 17 865 13 865 21"/>
</svg>
