<?xml version="1.0" encoding="UTF-8"?>
<svg xmlns="http://www.w3.org/2000/svg" width="551" height="37">
   <defs>
      <style type="text/css">
    @namespace "http://www.w3.org/2000/svg";
    .line                 {fill: none; stroke: #332900; stroke-width: 1;}
    .bold-line            {stroke: #141000; shape-rendering: crispEdges; stroke-width: 2;}
    .thin-line            {stroke: #1F1800; shape-rendering: crispEdges}
    .filled               {fill: #332900; stroke: none;}
    text.terminal         {font-family: Verdana, Sans-serif;
                            font-size: 12px;
                            fill: #141000;
                            font-weight: bold;
                          }
    text.nonterminal      {font-family: Verdana, Sans-serif;
                            font-size: 12px;
                            fill: #1A1400;
                            font-weight: normal;
                          }
    text.regexp           {font-family: Verdana, Sans-serif;
                            font-size: 12px;
                            fill: #1F1800;
                            font-weight: normal;
                          }
    rect, circle, polygon {fill: #332900; stroke: #332900;}
    rect.terminal         {fill: #FFDB4D; stroke: #332900; stroke-width: 1;}
    rect.nonterminal      {fill: #FFEC9E; stroke: #332900; stroke-width: 1;}
    rect.text             {fill: none; stroke: none;}
    polygon.regexp        {fill: #FFF4C7; stroke: #332900; stroke-width: 1;}
  </style>
   </defs>
   <polygon points="9 17 1 13 1 21"/>
   <polygon points="17 17 9 13 9 21"/>
   <a xmlns:xlink="http://www.w3.org/1999/xlink"
      xlink:href="#program_header"
      xlink:title="program_header">
      <rect x="31" y="3" width="126" height="32"/>
      <rect x="29" y="1" width="126" height="32" class="nonterminal"/>
      <text class="nonterminal" x="39" y="21">program_header</text>
   </a>
   <a xmlns:xlink="http://www.w3.org/1999/xlink"
      xlink:href="#declaration_part"
      xlink:title="declaration_part">
      <rect x="177" y="3" width="124" height="32"/>
      <rect x="175" y="1" width="124" height="32" class="nonterminal"/>
      <text class="nonterminal" x="185" y="21">declaration_part</text>
   </a>
   <a xmlns:xlink="http://www.w3.org/1999/xlink"
      xlink:href="#compound_statement"
      xlink:title="compound_statement">
      <rect x="321" y="3" width="158" height="32"/>
      <rect x="319" y="1" width="158" height="32" class="nonterminal"/>
      <text class="nonterminal" x="329" y="21">compound_statement</text>
   </a>
   <rect x="499" y="3" width="24" height="32" rx="10"/>
   <rect x="497"
         y="1"
         width="24"
         height="32"
         class="terminal"
         rx="10"/>
   <text class="terminal" x="507" y="21">.</text>
   <path class="line"
         d="m17 17 h2 m0 0 h10 m126 0 h10 m0 0 h10 m124 0 h10 m0 0 h10 m158 0 h10 m0 0 h10 m24 0 h10 m3 0 h-3"/>
   <polygon points="541 17 549 13 549 21"/>
   <polygon points="541 17 533 13 533 21"/>
</svg>
