<?xml version="1.0" encoding="UTF-8"?>
<svg xmlns="http://www.w3.org/2000/svg" width="607" height="69">
   <defs>
      <style type="text/css">
    @namespace "http://www.w3.org/2000/svg";
    .line                 {fill: none; stroke: #332900; stroke-width: 1;}
    .bold-line            {stroke: #141000; shape-rendering: crispEdges; stroke-width: 2;}
    .thin-line            {stroke: #1F1800; shape-rendering: crispEdges}
    .filled               {fill: #332900; stroke: none;}
    text.terminal         {font-family: Verdana, Sans-serif;
                            font-size: 12px;
                            fill: #141000;
                            font-weight: bold;
                          }
    text.nonterminal      {font-family: Verdana, Sans-serif;
                            font-size: 12px;
                            fill: #1A1400;
                            font-weight: normal;
                          }
    text.regexp           {font-family: Verdana, Sans-serif;
                            font-size: 12px;
                            fill: #1F1800;
                            font-weight: normal;
                          }
    rect, circle, polygon {fill: #332900; stroke: #332900;}
    rect.terminal         {fill: #FFDB4D; stroke: #332900; stroke-width: 1;}
    rect.nonterminal      {fill: #FFEC9E; stroke: #332900; stroke-width: 1;}
    rect.text             {fill: none; stroke: none;}
    polygon.regexp        {fill: #FFF4C7; stroke: #332900; stroke-width: 1;}
  </style>
   </defs>
   <polygon points="9 33 1 29 1 37"/>
   <polygon points="17 33 9 29 9 37"/>
   <rect x="31" y="19" width="78" height="32" rx="10"/>
   <rect x="29"
         y="17"
         width="78"
         height="32"
         class="terminal"
         rx="10"/>
   <text class="terminal" x="39" y="37">rekaman</text>
   <a xmlns:xlink="http://www.w3.org/1999/xlink"
      xlink:href="#IDENTIFIER"
      xlink:title="IDENTIFIER">
      <rect x="169" y="19" width="92" height="32"/>
      <rect x="167" y="17" width="92" height="32" class="nonterminal"/>
      <text class="nonterminal" x="177" y="37">IDENTIFIER</text>
   </a>
   <rect x="281" y="19" width="24" height="32" rx="10"/>
   <rect x="279"
         y="17"
         width="24"
         height="32"
         class="terminal"
         rx="10"/>
   <text class="terminal" x="289" y="37">:</text>
   <a xmlns:xlink="http://www.w3.org/1999/xlink"
      xlink:href="#type_spec"
      xlink:title="type_spec">
      <rect x="325" y="19" width="84" height="32"/>
      <rect x="323" y="17" width="84" height="32" class="nonterminal"/>
      <text class="nonterminal" x="333" y="37">type_spec</text>
   </a>
   <rect x="429" y="19" width="24" height="32" rx="10"/>
   <rect x="427"
         y="17"
         width="24"
         height="32"
         class="terminal"
         rx="10"/>
   <text class="terminal" x="437" y="37">;</text>
   <rect x="513" y="19" width="66" height="32" rx="10"/>
   <rect x="511"
         y="17"
         width="66"
         height="32"
         class="terminal"
         rx="10"/>
   <text class="terminal" x="521" y="37">selesai</text>
   <path class="line"
         d="m17 33 h2 m0 0 h10 m78 0 h10 m40 0 h10 m92 0 h10 m0 0 h10 m24 0 h10 m0 0 h10 m84 0 h10 m0 0 h10 m24 0 h10 m-324 0 l20 0 m-1 0 q-9 0 -9 -10 l0 -12 q0 -10 10 -10 m304 32 l20 0 m-20 0 q10 0 10 -10 l0 -12 q0 -10 -10 -10 m-304 0 h10 m0 0 h294 m-344 32 h20 m344 0 h20 m-384 0 q10 0 10 10 m364 0 q0 -10 10 -10 m-374 10 v14 m364 0 v-14 m-364 14 q0 10 10 10 m344 0 q10 0 10 -10 m-354 10 h10 m0 0 h334 m20 -34 h10 m66 0 h10 m3 0 h-3"/>
   <polygon points="597 33 605 29 605 37"/>
   <polygon points="597 33 589 29 589 37"/>
</svg>
