<?xml version="1.0" encoding="UTF-8"?>
<svg xmlns="http://www.w3.org/2000/svg" width="285" height="257">
   <defs>
      <style type="text/css">
    @namespace "http://www.w3.org/2000/svg";
    .line                 {fill: none; stroke: #332900; stroke-width: 1;}
    .bold-line            {stroke: #141000; shape-rendering: crispEdges; stroke-width: 2;}
    .thin-line            {stroke: #1F1800; shape-rendering: crispEdges}
    .filled               {fill: #332900; stroke: none;}
    text.terminal         {font-family: Verdana, Sans-serif;
                            font-size: 12px;
                            fill: #141000;
                            font-weight: bold;
                          }
    text.nonterminal      {font-family: Verdana, Sans-serif;
                            font-size: 12px;
                            fill: #1A1400;
                            font-weight: normal;
                          }
    text.regexp           {font-family: Verdana, Sans-serif;
                            font-size: 12px;
                            fill: #1F1800;
                            font-weight: normal;
                          }
    rect, circle, polygon {fill: #332900; stroke: #332900;}
    rect.terminal         {fill: #FFDB4D; stroke: #332900; stroke-width: 1;}
    rect.nonterminal      {fill: #FFEC9E; stroke: #332900; stroke-width: 1;}
    rect.text             {fill: none; stroke: none;}
    polygon.regexp        {fill: #FFF4C7; stroke: #332900; stroke-width: 1;}
  </style>
   </defs>
   <polygon points="9 17 1 13 1 21"/>
   <polygon points="17 17 9 13 9 21"/>
   <a xmlns:xlink="http://www.w3.org/1999/xlink"
      xlink:href="#compound_statement"
      xlink:title="compound_statement">
      <rect x="51" y="3" width="158" height="32"/>
      <rect x="49" y="1" width="158" height="32" class="nonterminal"/>
      <text class="nonterminal" x="59" y="21">compound_statement</text>
   </a>
   <a xmlns:xlink="http://www.w3.org/1999/xlink"
      xlink:href="#if_statement"
      xlink:title="if_statement">
      <rect x="51" y="47" width="100" height="32"/>
      <rect x="49" y="45" width="100" height="32" class="nonterminal"/>
      <text class="nonterminal" x="59" y="65">if_statement</text>
   </a>
   <a xmlns:xlink="http://www.w3.org/1999/xlink"
      xlink:href="#while_statement"
      xlink:title="while_statement">
      <rect x="51" y="91" width="126" height="32"/>
      <rect x="49" y="89" width="126" height="32" class="nonterminal"/>
      <text class="nonterminal" x="59" y="109">while_statement</text>
   </a>
   <a xmlns:xlink="http://www.w3.org/1999/xlink"
      xlink:href="#for_statement"
      xlink:title="for_statement">
      <rect x="51" y="135" width="110" height="32"/>
      <rect x="49" y="133" width="110" height="32" class="nonterminal"/>
      <text class="nonterminal" x="59" y="153">for_statement</text>
   </a>
   <a xmlns:xlink="http://www.w3.org/1999/xlink"
      xlink:href="#assignment_statement"
      xlink:title="assignment_statement">
      <rect x="51" y="179" width="168" height="32"/>
      <rect x="49" y="177" width="168" height="32" class="nonterminal"/>
      <text class="nonterminal" x="59" y="197">assignment_statement</text>
   </a>
   <a xmlns:xlink="http://www.w3.org/1999/xlink"
      xlink:href="#procedure_call_statement"
      xlink:title="procedure_call_statement">
      <rect x="51" y="223" width="186" height="32"/>
      <rect x="49" y="221" width="186" height="32" class="nonterminal"/>
      <text class="nonterminal" x="59" y="241">procedure_call_statement</text>
   </a>
   <path class="line"
         d="m17 17 h2 m20 0 h10 m158 0 h10 m0 0 h28 m-226 0 h20 m206 0 h20 m-246 0 q10 0 10 10 m226 0 q0 -10 10 -10 m-236 10 v24 m226 0 v-24 m-226 24 q0 10 10 10 m206 0 q10 0 10 -10 m-216 10 h10 m100 0 h10 m0 0 h86 m-216 -10 v20 m226 0 v-20 m-226 20 v24 m226 0 v-24 m-226 24 q0 10 10 10 m206 0 q10 0 10 -10 m-216 10 h10 m126 0 h10 m0 0 h60 m-216 -10 v20 m226 0 v-20 m-226 20 v24 m226 0 v-24 m-226 24 q0 10 10 10 m206 0 q10 0 10 -10 m-216 10 h10 m110 0 h10 m0 0 h76 m-216 -10 v20 m226 0 v-20 m-226 20 v24 m226 0 v-24 m-226 24 q0 10 10 10 m206 0 q10 0 10 -10 m-216 10 h10 m168 0 h10 m0 0 h18 m-216 -10 v20 m226 0 v-20 m-226 20 v24 m226 0 v-24 m-226 24 q0 10 10 10 m206 0 q10 0 10 -10 m-216 10 h10 m186 0 h10 m23 -220 h-3"/>
   <polygon points="275 17 283 13 283 21"/>
   <polygon points="275 17 267 13 267 21"/>
</svg>
