<?xml version="1.0" encoding="UTF-8"?>
<svg xmlns="http://www.w3.org/2000/svg" width="455" height="53">
   <defs>
      <style type="text/css">
    @namespace "http://www.w3.org/2000/svg";
    .line                 {fill: none; stroke: #332900; stroke-width: 1;}
    .bold-line            {stroke: #141000; shape-rendering: crispEdges; stroke-width: 2;}
    .thin-line            {stroke: #1F1800; shape-rendering: crispEdges}
    .filled               {fill: #332900; stroke: none;}
    text.terminal         {font-family: Verdana, Sans-serif;
                            font-size: 12px;
                            fill: #141000;
                            font-weight: bold;
                          }
    text.nonterminal      {font-family: Verdana, Sans-serif;
                            font-size: 12px;
                            fill: #1A1400;
                            font-weight: normal;
                          }
    text.regexp           {font-family: Verdana, Sans-serif;
                            font-size: 12px;
                            fill: #1F1800;
                            font-weight: normal;
                          }
    rect, circle, polygon {fill: #332900; stroke: #332900;}
    rect.terminal         {fill: #FFDB4D; stroke: #332900; stroke-width: 1;}
    rect.nonterminal      {fill: #FFEC9E; stroke: #332900; stroke-width: 1;}
    rect.text             {fill: none; stroke: none;}
    polygon.regexp        {fill: #FFF4C7; stroke: #332900; stroke-width: 1;}
  </style>
   </defs>
   <polygon points="9 33 1 29 1 37"/>
   <polygon points="17 33 9 29 9 37"/>
   <rect x="31" y="19" width="46" height="32" rx="10"/>
   <rect x="29"
         y="17"
         width="46"
         height="32"
         class="terminal"
         rx="10"/>
   <text class="terminal" x="39" y="37">tipe</text>
   <a xmlns:xlink="http://www.w3.org/1999/xlink"
      xlink:href="#IDENTIFIER"
      xlink:title="IDENTIFIER">
      <rect x="117" y="19" width="92" height="32"/>
      <rect x="115" y="17" width="92" height="32" class="nonterminal"/>
      <text class="nonterminal" x="125" y="37">IDENTIFIER</text>
   </a>
   <rect x="229" y="19" width="30" height="32" rx="10"/>
   <rect x="227"
         y="17"
         width="30"
         height="32"
         class="terminal"
         rx="10"/>
   <text class="terminal" x="237" y="37">=</text>
   <a xmlns:xlink="http://www.w3.org/1999/xlink"
      xlink:href="#type_spec"
      xlink:title="type_spec">
      <rect x="279" y="19" width="84" height="32"/>
      <rect x="277" y="17" width="84" height="32" class="nonterminal"/>
      <text class="nonterminal" x="287" y="37">type_spec</text>
   </a>
   <rect x="383" y="19" width="24" height="32" rx="10"/>
   <rect x="381"
         y="17"
         width="24"
         height="32"
         class="terminal"
         rx="10"/>
   <text class="terminal" x="391" y="37">;</text>
   <path class="line"
         d="m17 33 h2 m0 0 h10 m46 0 h10 m20 0 h10 m92 0 h10 m0 0 h10 m30 0 h10 m0 0 h10 m84 0 h10 m0 0 h10 m24 0 h10 m-330 0 l20 0 m-1 0 q-9 0 -9 -10 l0 -12 q0 -10 10 -10 m310 32 l20 0 m-20 0 q10 0 10 -10 l0 -12 q0 -10 -10 -10 m-310 0 h10 m0 0 h300 m23 32 h-3"/>
   <polygon points="445 33 453 29 453 37"/>
   <polygon points="445 33 437 29 437 37"/>
</svg>
