<?xml version="1.0" encoding="UTF-8"?>
<svg xmlns="http://www.w3.org/2000/svg" width="451" height="53">
   <defs>
      <style type="text/css">
    @namespace "http://www.w3.org/2000/svg";
    .line                 {fill: none; stroke: #332900; stroke-width: 1;}
    .bold-line            {stroke: #141000; shape-rendering: crispEdges; stroke-width: 2;}
    .thin-line            {stroke: #1F1800; shape-rendering: crispEdges}
    .filled               {fill: #332900; stroke: none;}
    text.terminal         {font-family: Verdana, Sans-serif;
                            font-size: 12px;
                            fill: #141000;
                            font-weight: bold;
                          }
    text.nonterminal      {font-family: Verdana, Sans-serif;
                            font-size: 12px;
                            fill: #1A1400;
                            font-weight: normal;
                          }
    text.regexp           {font-family: Verdana, Sans-serif;
                            font-size: 12px;
                            fill: #1F1800;
                            font-weight: normal;
                          }
    rect, circle, polygon {fill: #332900; stroke: #332900;}
    rect.terminal         {fill: #FFDB4D; stroke: #332900; stroke-width: 1;}
    rect.nonterminal      {fill: #FFEC9E; stroke: #332900; stroke-width: 1;}
    rect.text             {fill: none; stroke: none;}
    polygon.regexp        {fill: #FFF4C7; stroke: #332900; stroke-width: 1;}
  </style>
   </defs>
   <polygon points="9 33 1 29 1 37"/>
   <polygon points="17 33 9 29 9 37"/>
   <rect x="31" y="19" width="74" height="32" rx="10"/>
   <rect x="29"
         y="17"
         width="74"
         height="32"
         class="terminal"
         rx="10"/>
   <text class="terminal" x="39" y="37">variabel</text>
   <a xmlns:xlink="http://www.w3.org/1999/xlink"
      xlink:href="#identifier_list"
      xlink:title="identifier_list">
      <rect x="145" y="19" width="102" height="32"/>
      <rect x="143" y="17" width="102" height="32" class="nonterminal"/>
      <text class="nonterminal" x="153" y="37">identifier_list</text>
   </a>
   <rect x="267" y="19" width="24" height="32" rx="10"/>
   <rect x="265"
         y="17"
         width="24"
         height="32"
         class="terminal"
         rx="10"/>
   <text class="terminal" x="275" y="37">:</text>
   <a xmlns:xlink="http://www.w3.org/1999/xlink"
      xlink:href="#type"
      xlink:title="type">
      <rect x="311" y="19" width="48" height="32"/>
      <rect x="309" y="17" width="48" height="32" class="nonterminal"/>
      <text class="nonterminal" x="319" y="37">type</text>
   </a>
   <rect x="379" y="19" width="24" height="32" rx="10"/>
   <rect x="377"
         y="17"
         width="24"
         height="32"
         class="terminal"
         rx="10"/>
   <text class="terminal" x="387" y="37">;</text>
   <path class="line"
         d="m17 33 h2 m0 0 h10 m74 0 h10 m20 0 h10 m102 0 h10 m0 0 h10 m24 0 h10 m0 0 h10 m48 0 h10 m0 0 h10 m24 0 h10 m-298 0 l20 0 m-1 0 q-9 0 -9 -10 l0 -12 q0 -10 10 -10 m278 32 l20 0 m-20 0 q10 0 10 -10 l0 -12 q0 -10 -10 -10 m-278 0 h10 m0 0 h268 m23 32 h-3"/>
   <polygon points="441 33 449 29 449 37"/>
   <polygon points="441 33 433 29 433 37"/>
</svg>
